<svg data-v-423bf9ae="" xmlns="http://www.w3.org/2000/svg" viewBox="0 0 684.6656530857451 60" class="font"><!----><!----><defs data-v-423bf9ae=""><linearGradient data-v-423bf9ae="" gradientTransform="rotate(25)" id="470146a5-510b-4401-b766-b9e6fcfa80ae" x1="0%" y1="0%" x2="100%" y2="0%"><stop data-v-423bf9ae="" offset="0%" style="stop-color: rgb(192, 109, 105); stop-opacity: 1;"></stop><stop data-v-423bf9ae="" offset="100%" style="stop-color: rgb(210, 176, 92); stop-opacity: 1;"></stop></linearGradient></defs><g data-v-423bf9ae="" id="f9cab254-1711-4714-bfb9-983130d31b60" fill="url(#470146a5-510b-4401-b766-b9e6fcfa80ae)" transform="matrix(4.559270569581267,0,0,4.559270569581267,-0.5927042463329144,-16.231002489988597)"><path d="M1.92 13.44C2.84 13.44 3.30 13.52 3.46 13.52C3.64 13.52 3.77 13.40 3.77 13.22C3.77 12.94 3.58 12.89 3.46 12.88C2.87 12.81 2.58 12.82 2.58 12.43C2.58 12.15 3.11 10.68 3.79 9.41C3.88 9.25 3.96 9.24 4.12 9.24L7.41 9.24C7.53 9.24 7.60 9.25 7.66 9.38C8.20 10.63 8.71 12.29 8.71 12.54C8.71 12.78 8.50 12.80 8.43 12.81C7.76 12.89 7.60 12.85 7.60 13.29C7.60 13.43 7.69 13.52 7.88 13.52C8.05 13.52 8.54 13.44 9.55 13.44C10.40 13.44 11.10 13.52 11.16 13.52C11.34 13.52 11.44 13.40 11.44 13.22C11.44 13.19 11.42 13.09 11.41 13.03C11.33 12.70 10.71 13.01 10.36 12.49C10.28 12.36 10.33 12.45 8.81 8.74L6.79 4.09C6.73 3.95 6.57 3.56 6.20 3.56C6.08 3.56 5.96 3.60 5.87 3.67C5.70 3.81 5.80 3.67 3.70 7.66C2.94 9.14 2.23 10.64 1.55 12.14C1.34 12.61 1.20 12.75 0.76 12.81C0.34 12.87 0.13 12.85 0.13 13.23C0.13 13.34 0.18 13.52 0.41 13.52C0.45 13.52 1.09 13.44 1.92 13.44ZM7.13 8.51L4.26 8.51C4.20 8.51 4.17 8.48 4.17 8.46C4.17 8.37 4.73 7.29 5.60 5.67C5.66 5.57 5.74 5.43 5.87 5.43C5.94 5.43 5.98 5.46 6.02 5.53C6.23 5.87 7.25 8.27 7.25 8.41C7.25 8.50 7.20 8.51 7.13 8.51ZM21.22 7.63C21.11 7.63 20.78 7.69 20.10 7.69C19.45 7.69 19.11 7.63 19.01 7.63C18.86 7.63 18.84 7.76 18.84 7.87C18.84 8.09 18.96 8.13 19.10 8.15C19.70 8.19 19.95 8.15 19.95 8.48C19.95 8.64 19.60 10.35 18.59 12.12C18.58 12.17 18.54 12.25 18.42 12.25C18.34 12.25 18.27 12.18 18.20 12.05C17.29 10.61 16.45 8.74 16.45 8.47C16.45 8.25 16.63 8.19 16.77 8.18C17.56 8.11 17.58 8.15 17.58 7.92L17.58 7.84C17.58 7.74 17.54 7.63 17.39 7.63C17.25 7.63 16.81 7.67 15.95 7.67C15.08 7.67 14.64 7.63 14.50 7.63C14.32 7.63 14.28 7.76 14.28 7.95C14.28 8.40 14.98 7.97 15.33 8.51C15.39 8.60 15.86 9.58 15.86 9.69L15.86 9.70C15.85 9.91 15.13 11.31 14.59 12.15C14.59 12.17 14.53 12.26 14.45 12.26C14.36 12.26 14.32 12.18 14.31 12.15C13.73 11.03 13.20 9.86 12.74 8.64C12.70 8.55 12.66 8.44 12.66 8.37C12.66 7.95 13.52 8.39 13.52 7.87C13.52 7.70 13.45 7.63 13.36 7.63C13.26 7.63 12.95 7.67 12.35 7.67L12.31 7.67C11.69 7.67 11.37 7.63 11.27 7.63C11.06 7.63 11.02 7.74 11.02 7.87C11.02 8.33 11.41 7.98 11.63 8.37C11.73 8.54 12.45 10.58 13.94 13.43C14.07 13.66 14.18 13.79 14.35 13.79C14.46 13.79 14.55 13.73 14.60 13.66C14.71 13.54 14.71 13.50 15.65 11.61C16.17 10.50 16.17 10.50 16.21 10.50C16.27 10.50 16.25 10.51 17.14 12.22C17.79 13.44 17.95 13.79 18.21 13.79C18.37 13.79 18.47 13.71 18.61 13.44C20.86 9.24 20.40 8.30 21 8.18C21.13 8.16 21.43 8.23 21.43 7.87C21.43 7.73 21.36 7.63 21.22 7.63ZM21.77 10.56C21.77 12.95 23.32 13.71 24.47 13.71C25.47 13.71 26.38 13.20 26.95 12.46C27.02 12.38 27.05 12.29 27.05 12.24C27.05 12.11 26.95 12.03 26.82 12.03C26.68 12.03 26.57 12.15 26.50 12.22C26.07 12.64 25.45 12.91 24.84 12.91C23.07 12.91 22.76 11.05 22.76 10.88C22.76 10.75 22.85 10.77 25.75 9.77C26.15 9.63 26.88 9.49 26.88 9.07L26.88 9.06C26.88 8.93 26.82 8.82 26.77 8.75C26.25 8.04 25.33 7.41 24.36 7.41C22.96 7.41 21.77 8.60 21.77 10.56ZM25.52 9.10C25.52 9.16 25.48 9.23 25.40 9.27C25.37 9.28 22.82 10.28 22.78 10.28C22.75 10.28 22.71 10.26 22.71 10.18C22.71 8.93 23.24 8.18 24.05 8.18C24.84 8.18 25.52 8.93 25.52 9.10ZM27.62 9.11C27.62 9.80 28.04 10.50 29.18 10.82C29.62 10.95 30.86 11.09 30.86 12.01C30.86 12.57 30.35 12.95 29.72 12.95C28.91 12.95 28.27 12.42 28.13 12.12C27.93 11.73 28.15 11.26 27.80 11.26C27.59 11.26 27.55 11.33 27.55 11.69C27.55 11.89 27.57 12.15 27.57 12.53C27.57 12.74 27.59 12.85 27.73 13.01C28.14 13.48 29.02 13.71 29.67 13.71C31.05 13.71 31.79 12.71 31.79 11.82C31.79 11.59 31.74 11.13 31.37 10.71C30.86 10.11 30.20 10.07 29.48 9.87C28.45 9.58 28.38 9.06 28.38 8.86C28.38 8.41 28.78 8.12 29.26 8.12C29.72 8.12 30.23 8.41 30.41 8.67C30.60 8.95 30.56 9.35 30.86 9.35C30.97 9.35 31.18 9.31 31.18 9.13C31.18 9.07 31.00 8.15 30.91 7.66C30.90 7.59 30.86 7.39 30.69 7.39C30.52 7.39 30.46 7.53 30.34 7.53C30.27 7.53 30.06 7.46 29.64 7.46C28.38 7.46 27.62 8.27 27.62 9.11ZM32.21 10.58C32.21 12.31 33.40 13.71 35.18 13.71C36.75 13.71 38.16 12.59 38.16 10.58C38.16 8.71 36.90 7.39 35.24 7.39C33.67 7.39 32.21 8.64 32.21 10.58ZM35.22 13.02C34.08 13.02 33.31 11.97 33.31 10.51C33.31 8.64 34.41 8.05 35.14 8.05C36.20 8.05 37.21 9.14 37.21 10.64C37.21 11.89 36.41 13.02 35.22 13.02ZM40.45 8.15C40.40 8.15 40.39 8.11 40.39 8.06L40.39 7.53C40.39 7.46 40.38 7.36 40.26 7.36C40.18 7.36 40.15 7.41 40.00 7.49C38.86 8.22 38.86 8.18 38.86 8.30C38.86 8.39 38.95 8.44 38.99 8.47C39.51 8.86 39.55 8.85 39.55 9.13L39.55 12.60C39.49 13.16 38.77 12.78 38.77 13.22C38.77 13.36 38.79 13.50 38.96 13.50C39.06 13.50 39.37 13.44 39.98 13.44C40.63 13.44 41.13 13.52 41.17 13.52C41.30 13.52 41.36 13.43 41.36 13.30C41.36 13.16 41.36 13.03 41.16 13.01C40.54 12.91 40.42 12.94 40.42 12.53L40.42 9.16C40.42 8.95 40.45 8.86 40.47 8.79C40.56 8.64 40.92 8.25 41.54 8.25C41.93 8.25 42.28 8.40 42.52 8.58C42.91 8.88 42.97 9.34 42.97 9.80L42.97 12.39C42.97 12.73 42.91 12.87 42.60 12.92C42.01 13.02 41.85 12.99 41.85 13.22C41.85 13.40 41.87 13.52 42.04 13.52C42.07 13.52 42.64 13.44 43.34 13.44C44.04 13.44 44.60 13.52 44.65 13.52C44.80 13.52 44.83 13.36 44.83 13.23C44.83 13.08 44.74 12.99 44.56 12.96C43.99 12.89 43.88 12.92 43.88 12.66L43.88 12.64C43.88 12.60 43.89 12.57 43.89 12.53L43.89 9.83C43.89 9.23 43.81 8.90 43.81 8.89C43.81 8.68 44.46 8.25 45.08 8.25C45.51 8.25 45.81 8.44 45.95 8.55C46.48 9.02 46.52 9.87 46.52 10.60L46.52 12.54C46.52 12.74 46.52 12.88 46.24 12.92C45.68 13.03 45.58 13.01 45.58 13.29C45.58 13.47 45.72 13.52 45.81 13.52C45.92 13.52 46.28 13.44 47.00 13.44C47.70 13.44 48.06 13.52 48.17 13.52C48.36 13.52 48.38 13.37 48.38 13.24C48.38 13.15 48.37 13.02 48.19 12.99C47.66 12.88 47.52 12.92 47.52 12.47L47.52 10.70C47.52 10.14 47.52 9.59 47.36 9.06C47.04 7.91 46.19 7.53 45.47 7.53C45.21 7.53 44.72 7.59 44.11 7.94C43.58 8.25 43.64 8.32 43.53 8.32C43.50 8.32 43.48 8.32 43.47 8.30C43.44 8.29 42.87 7.53 41.96 7.53C41.12 7.53 40.52 8.15 40.45 8.15ZM48.89 10.56C48.89 12.95 50.44 13.71 51.59 13.71C52.58 13.71 53.49 13.20 54.07 12.46C54.14 12.38 54.17 12.29 54.17 12.24C54.17 12.11 54.07 12.03 53.94 12.03C53.80 12.03 53.69 12.15 53.62 12.22C53.19 12.64 52.57 12.91 51.95 12.91C50.19 12.91 49.88 11.05 49.88 10.88C49.88 10.75 49.97 10.77 52.86 9.77C53.27 9.63 54.00 9.49 54.00 9.07L54.00 9.06C54.00 8.93 53.94 8.82 53.89 8.75C53.37 8.04 52.44 7.41 51.48 7.41C50.08 7.41 48.89 8.60 48.89 10.56ZM52.64 9.10C52.64 9.16 52.60 9.23 52.51 9.27C52.49 9.28 49.94 10.28 49.90 10.28C49.87 10.28 49.83 10.26 49.83 10.18C49.83 8.93 50.36 8.18 51.17 8.18C51.95 8.18 52.64 8.93 52.64 9.10ZM62.93 13.78C63.87 13.78 64.93 13.45 65.80 12.70C65.84 12.66 65.91 12.59 66.00 12.59C66.12 12.59 66.25 12.88 66.42 12.88C66.57 12.88 66.61 12.75 66.61 12.60L66.61 10.23C66.61 10.18 66.61 10.14 66.63 10.09C66.71 9.74 67.37 9.88 67.37 9.45C67.37 9.32 67.27 9.16 67.00 9.16C66.86 9.16 66.40 9.21 65.51 9.21L65.48 9.21C64.61 9.21 64.19 9.16 64.04 9.16C63.83 9.16 63.73 9.31 63.73 9.48C63.73 9.73 63.95 9.79 64.12 9.80C65.14 9.90 65.44 9.84 65.44 10.30L65.44 11.89C65.44 11.96 65.44 12.04 65.39 12.12C65.27 12.36 64.29 13.03 63.08 13.03C61.63 13.03 59.43 12.00 59.43 8.30C59.43 5.26 61.15 4.23 62.57 4.23C63.78 4.23 64.92 4.91 65.60 5.85C66.30 6.82 65.91 7.27 66.36 7.27C66.67 7.27 66.77 7.18 66.77 7.04C66.77 6.99 66.61 5.88 66.61 4.45L66.61 4.07C66.61 3.92 66.51 3.88 66.42 3.88C66.35 3.88 66.29 3.89 66.25 3.92C66.09 4.00 65.90 4.47 65.63 4.47L65.58 4.47C65.41 4.42 64.40 3.56 62.73 3.56C60.16 3.56 58.03 5.64 58.03 8.48C58.03 11.42 60.31 13.78 62.93 13.78ZM67.89 8.61C67.89 8.93 68.18 9.11 68.45 9.11C68.63 9.11 68.71 9.02 68.75 8.96C68.78 8.90 69.16 8.02 69.96 8.02C70.32 8.02 70.60 8.22 70.77 8.40C71.05 8.72 71.11 9.07 71.11 9.52L71.11 10.02C71.11 10.12 71.09 10.19 70.99 10.22C70.97 10.23 69.29 10.29 68.53 10.89C68.19 11.16 67.94 11.61 67.94 12.14L67.94 12.15C67.94 13.01 68.57 13.72 69.54 13.72C70.06 13.72 70.52 13.54 70.84 13.33C71.19 13.09 71.15 13.02 71.22 13.02C71.23 13.02 71.23 13.03 71.25 13.03C71.27 13.05 71.61 13.61 72.24 13.61C72.97 13.61 73.32 12.82 73.32 12.50C73.32 12.38 73.25 12.32 73.19 12.32C72.98 12.32 73.01 12.78 72.58 12.78C72.44 12.78 72.10 12.71 72.10 12.17L72.10 9.41C72.10 9.24 72.09 9.07 72.07 8.90C71.93 7.53 70.57 7.36 70.04 7.36C68.88 7.36 67.89 8.11 67.89 8.61ZM69.87 12.95C69.69 12.95 69.44 12.92 69.27 12.77C69.05 12.57 68.98 12.22 68.98 12.00C68.98 11.65 69.13 11.40 69.31 11.24C69.78 10.81 70.73 10.74 70.98 10.74C71.11 10.74 71.12 10.81 71.12 11.14L71.12 11.72L71.12 12.05C71.12 12.18 71.11 12.28 71.04 12.38C70.97 12.47 70.56 12.95 69.87 12.95ZM74.86 4.79C74.86 5.17 75.15 5.45 75.52 5.45C75.88 5.45 76.20 5.15 76.20 4.77C76.20 4.42 75.89 4.13 75.53 4.13C75.17 4.13 74.86 4.42 74.86 4.79ZM74.72 11.75L74.72 12.40C74.72 12.66 74.69 12.85 74.34 12.91C73.71 12.99 73.65 12.96 73.65 13.29C73.65 13.43 73.72 13.52 73.86 13.52C73.91 13.52 74.45 13.44 75.15 13.44C75.84 13.44 76.40 13.52 76.44 13.52C76.59 13.52 76.61 13.33 76.61 13.22C76.61 12.98 76.44 12.99 75.98 12.92C75.67 12.88 75.66 12.84 75.66 11.13L75.66 10.67C75.66 8.96 75.74 7.60 75.74 7.49C75.74 7.32 75.63 7.27 75.54 7.27L75.53 7.27C75.46 7.27 75.45 7.29 73.99 7.99C73.84 8.06 73.61 8.12 73.61 8.29C73.61 8.40 73.71 8.44 73.78 8.47C74.68 8.83 74.73 8.82 74.73 9.04C74.73 9.31 74.72 10.12 74.72 11.75ZM77.36 8.33L77.81 8.33C77.90 8.33 77.91 8.39 77.91 8.46C77.91 8.76 77.85 10.93 77.85 11.55C77.85 11.70 77.85 11.84 77.87 12.00C77.97 13.31 78.72 13.71 79.28 13.71C80.05 13.71 80.74 13.01 81.23 12.45C81.26 12.40 81.33 12.32 81.33 12.21C81.33 12.08 81.23 11.96 81.07 11.96C80.77 11.96 80.22 12.80 79.55 12.80C78.96 12.80 78.83 12.25 78.83 11.76C78.83 11.42 78.83 11.10 78.85 8.48C78.85 8.39 78.89 8.36 78.99 8.36L80.63 8.36C80.75 8.36 80.82 8.34 80.88 8.29C80.95 8.20 81.00 7.97 81.00 7.88C81.00 7.62 80.77 7.62 80.64 7.62C80.60 7.62 80.57 7.60 80.53 7.60L79.27 7.60C79.10 7.60 78.99 7.56 78.99 7.32C78.99 7.13 79.00 6.54 79.00 6.34C79.00 6.16 78.90 6.12 78.82 6.12C78.67 6.12 78.58 6.30 78.54 6.37C77.78 7.66 77.08 7.91 77.08 8.15C77.08 8.32 77.24 8.33 77.36 8.33ZM91.10 6.50C91.10 7.34 90.54 7.88 89.95 8.12C89.56 8.27 89.17 8.32 88.66 8.32C87.84 8.32 87.74 8.32 87.74 8.06L87.74 4.77C87.74 4.76 87.72 4.75 87.72 4.73C87.72 4.63 87.74 4.55 87.81 4.51C87.93 4.41 88.47 4.37 88.65 4.37C90.06 4.37 91.10 5.38 91.10 6.50ZM88.93 3.82C88.00 3.82 87.08 3.99 85.83 3.99L85.34 3.99C85.22 3.99 85.16 4.05 85.16 4.26C85.16 4.40 85.23 4.45 85.37 4.48C86.34 4.65 86.55 4.63 86.55 5.08L86.55 12.32C86.55 12.60 86.51 12.77 86.17 12.81C85.53 12.87 85.30 12.84 85.30 13.15C85.30 13.31 85.34 13.52 85.55 13.52C85.61 13.52 86.38 13.44 87.35 13.44C88.31 13.44 89.10 13.52 89.15 13.52C89.33 13.52 89.43 13.40 89.43 13.22C89.43 12.78 89.10 12.84 88.16 12.75C87.81 12.71 87.79 12.47 87.79 12.31L87.79 12.26L87.79 9.03C87.79 8.86 87.86 8.82 87.99 8.82L89.01 8.82C89.11 8.82 89.18 8.82 89.25 8.88C89.33 8.93 89.29 8.88 90.54 10.61L91.94 12.60C92.11 12.82 92.68 13.62 93.42 13.62C94.23 13.62 94.64 12.81 94.64 12.60C94.64 12.52 94.58 12.45 94.50 12.45C94.32 12.45 94.26 12.75 93.90 12.75C93.60 12.75 93.34 12.53 93.14 12.31C92.61 11.68 92.27 10.72 90.55 8.71C90.54 8.69 90.52 8.68 90.52 8.65C90.52 8.61 90.57 8.60 90.59 8.58C90.97 8.44 92.19 7.66 92.19 6.26C92.19 5.28 91.45 3.82 88.93 3.82ZM95.02 10.56C95.02 12.95 96.57 13.71 97.72 13.71C98.71 13.71 99.62 13.20 100.20 12.46C100.27 12.38 100.30 12.29 100.30 12.24C100.30 12.11 100.20 12.03 100.07 12.03C99.93 12.03 99.82 12.15 99.75 12.22C99.32 12.64 98.70 12.91 98.08 12.91C96.32 12.91 96.01 11.05 96.01 10.88C96.01 10.75 96.10 10.77 98.99 9.77C99.40 9.63 100.13 9.49 100.13 9.07L100.13 9.06C100.13 8.93 100.07 8.82 100.02 8.75C99.50 8.04 98.57 7.41 97.61 7.41C96.21 7.41 95.02 8.60 95.02 10.56ZM98.77 9.10C98.77 9.16 98.73 9.23 98.64 9.27C98.62 9.28 96.07 10.28 96.03 10.28C96.00 10.28 95.96 10.26 95.96 10.18C95.96 8.93 96.49 8.18 97.30 8.18C98.08 8.18 98.77 8.93 98.77 9.10ZM103.36 13.69C104.41 13.69 105.22 13.12 105.67 12.50C105.71 12.45 105.76 12.36 105.76 12.28C105.76 12.14 105.64 12.04 105.52 12.04C105.20 12.04 104.90 12.80 103.81 12.80C102.52 12.80 101.60 11.63 101.60 10.33C101.60 9.16 102.34 8.18 103.19 8.18C104.01 8.18 104.24 9.02 104.89 9.02C105.18 9.02 105.45 8.81 105.45 8.48C105.45 7.95 104.68 7.45 103.67 7.45C101.88 7.45 100.67 8.78 100.67 10.68C100.67 12.40 101.75 13.69 103.36 13.69ZM106.06 10.58C106.06 12.31 107.25 13.71 109.03 13.71C110.60 13.71 112.01 12.59 112.01 10.58C112.01 8.71 110.75 7.39 109.09 7.39C107.52 7.39 106.06 8.64 106.06 10.58ZM109.07 13.02C107.93 13.02 107.16 11.97 107.16 10.51C107.16 8.64 108.26 8.05 108.99 8.05C110.05 8.05 111.06 9.14 111.06 10.64C111.06 11.89 110.26 13.02 109.07 13.02ZM114.93 7.85C115.82 7.85 116.40 8.85 116.40 9.83C116.40 10.70 115.91 11.38 115.15 11.38C114.28 11.38 113.71 10.44 113.71 9.39C113.71 8.47 114.23 7.85 114.93 7.85ZM113.47 14.67C113.47 14.43 113.57 14.18 113.74 14.01C113.83 13.92 113.88 13.86 113.97 13.86L114.02 13.86C115.47 14.01 116.34 13.89 116.97 14.21C117.12 14.28 117.53 14.53 117.53 15.04C117.53 15.44 117.19 16.06 115.75 16.06C114.46 16.06 113.47 15.51 113.47 14.67ZM112.62 9.56C112.62 9.93 112.70 10.28 112.88 10.58C113.27 11.30 113.74 11.34 113.74 11.48C113.74 11.49 113.74 11.51 113.72 11.52C113.71 11.54 112.92 12.12 112.92 12.84C112.92 13.47 113.44 13.59 113.44 13.68C113.44 13.71 113.43 13.72 113.41 13.73C113.40 13.75 112.69 14.10 112.69 14.95C112.69 15.60 113.13 16.72 115.43 16.72C117.74 16.72 118.34 15.57 118.34 14.80C118.34 14.18 117.95 13.50 117.07 13.24C115.98 12.92 113.64 13.30 113.64 12.46C113.64 12.15 114.02 11.75 114.27 11.75C114.45 11.75 114.62 11.87 115.08 11.87C116.40 11.87 117.40 10.81 117.40 9.52C117.40 8.99 117.25 8.72 117.25 8.64C117.25 8.60 117.28 8.55 117.31 8.53C117.43 8.43 118.31 8.23 118.31 7.69C118.31 7.41 118.05 7.11 117.78 7.11C117.56 7.11 117.45 7.32 117.38 7.43C117.19 7.70 116.91 7.88 116.65 7.88C116.34 7.88 115.89 7.38 114.88 7.38C113.58 7.38 112.62 8.39 112.62 9.56ZM120.44 8.16C120.44 8.15 120.46 8.11 120.46 8.08L120.46 7.53C120.46 7.42 120.41 7.32 120.29 7.32C120.23 7.32 120.19 7.35 120.15 7.38C118.85 8.08 118.82 8.06 118.82 8.18L118.82 8.19C118.82 8.25 118.86 8.29 118.90 8.33C119.53 8.81 119.53 8.78 119.53 9.11L119.53 12.46C119.53 12.70 119.52 12.88 119.17 12.94C118.73 13.01 118.62 12.99 118.62 13.27C118.62 13.47 118.76 13.52 118.85 13.52C118.89 13.52 119.41 13.44 120.08 13.44C120.76 13.44 121.34 13.54 121.38 13.54C121.51 13.54 121.56 13.43 121.56 13.29C121.56 12.98 121.39 13.01 120.81 12.91C120.51 12.87 120.50 12.67 120.50 12.52L120.50 12.47L120.50 9.16C120.50 9.10 120.50 9.03 120.51 8.97C120.57 8.72 121.14 8.06 121.95 8.06C122.28 8.06 123.05 8.19 123.35 8.90C123.52 9.32 123.54 10.16 123.54 10.42L123.54 12.59C123.54 12.82 123.49 12.89 123.31 12.92C122.75 13.02 122.58 12.99 122.58 13.24C122.58 13.38 122.61 13.52 122.78 13.52C122.81 13.52 123.31 13.44 123.93 13.44C124.63 13.44 124.98 13.52 125.10 13.52C125.19 13.52 125.31 13.48 125.31 13.24C125.31 13.15 125.30 13.02 125.12 12.99C124.63 12.92 124.45 12.95 124.45 12.56L124.45 12.53C124.45 10.60 124.46 10.35 124.46 10.11C124.46 9.87 124.46 9.63 124.43 9.39C124.29 7.66 123.07 7.38 122.44 7.38L122.42 7.38C121.21 7.39 120.55 8.22 120.50 8.22L120.48 8.22C120.47 8.22 120.44 8.20 120.44 8.16ZM126.91 4.79C126.91 5.17 127.20 5.45 127.57 5.45C127.93 5.45 128.25 5.15 128.25 4.77C128.25 4.42 127.95 4.13 127.58 4.13C127.22 4.13 126.91 4.42 126.91 4.79ZM126.77 11.75L126.77 12.40C126.77 12.66 126.74 12.85 126.39 12.91C125.76 12.99 125.71 12.96 125.71 13.29C125.71 13.43 125.78 13.52 125.92 13.52C125.96 13.52 126.50 13.44 127.20 13.44C127.89 13.44 128.45 13.52 128.49 13.52C128.65 13.52 128.66 13.33 128.66 13.22C128.66 12.98 128.49 12.99 128.03 12.92C127.72 12.88 127.71 12.84 127.71 11.13L127.71 10.67C127.71 8.96 127.79 7.60 127.79 7.49C127.79 7.32 127.68 7.27 127.60 7.27L127.58 7.27C127.51 7.27 127.50 7.29 126.04 7.99C125.89 8.06 125.66 8.12 125.66 8.29C125.66 8.40 125.76 8.44 125.83 8.47C126.73 8.83 126.78 8.82 126.78 9.04C126.78 9.31 126.77 10.12 126.77 11.75ZM129.42 8.33L129.86 8.33C129.95 8.33 129.96 8.39 129.96 8.46C129.96 8.76 129.91 10.93 129.91 11.55C129.91 11.70 129.91 11.84 129.92 12.00C130.02 13.31 130.77 13.71 131.33 13.71C132.10 13.71 132.79 13.01 133.28 12.45C133.31 12.40 133.38 12.32 133.38 12.21C133.38 12.08 133.28 11.96 133.13 11.96C132.82 11.96 132.27 12.80 131.60 12.80C131.01 12.80 130.89 12.25 130.89 11.76C130.89 11.42 130.89 11.10 130.90 8.48C130.90 8.39 130.94 8.36 131.04 8.36L132.68 8.36C132.80 8.36 132.87 8.34 132.93 8.29C133 8.20 133.06 7.97 133.06 7.88C133.06 7.62 132.82 7.62 132.69 7.62C132.65 7.62 132.62 7.60 132.58 7.60L131.32 7.60C131.15 7.60 131.04 7.56 131.04 7.32C131.04 7.13 131.05 6.54 131.05 6.34C131.05 6.16 130.96 6.12 130.87 6.12C130.72 6.12 130.63 6.30 130.59 6.37C129.84 7.66 129.14 7.91 129.14 8.15C129.14 8.32 129.29 8.33 129.42 8.33ZM134.97 4.79C134.97 5.17 135.27 5.45 135.63 5.45C136.00 5.45 136.32 5.15 136.32 4.77C136.32 4.42 136.01 4.13 135.65 4.13C135.28 4.13 134.97 4.42 134.97 4.79ZM134.83 11.75L134.83 12.40C134.83 12.66 134.81 12.85 134.46 12.91C133.83 12.99 133.77 12.96 133.77 13.29C133.77 13.43 133.84 13.52 133.98 13.52C134.02 13.52 134.57 13.44 135.27 13.44C135.95 13.44 136.51 13.52 136.56 13.52C136.71 13.52 136.72 13.33 136.72 13.22C136.72 12.98 136.56 12.99 136.09 12.92C135.79 12.88 135.77 12.84 135.77 11.13L135.77 10.67C135.77 8.96 135.86 7.60 135.86 7.49C135.86 7.32 135.74 7.27 135.66 7.27L135.65 7.27C135.58 7.27 135.56 7.29 134.11 7.99C133.95 8.06 133.73 8.12 133.73 8.29C133.73 8.40 133.83 8.44 133.90 8.47C134.79 8.83 134.85 8.82 134.85 9.04C134.85 9.31 134.83 10.12 134.83 11.75ZM137.21 10.58C137.21 12.31 138.40 13.71 140.18 13.71C141.75 13.71 143.16 12.59 143.16 10.58C143.16 8.71 141.90 7.39 140.24 7.39C138.67 7.39 137.21 8.64 137.21 10.58ZM140.22 13.02C139.08 13.02 138.31 11.97 138.31 10.51C138.31 8.64 139.41 8.05 140.14 8.05C141.20 8.05 142.21 9.14 142.21 10.64C142.21 11.89 141.41 13.02 140.22 13.02ZM145.43 8.16C145.43 8.15 145.45 8.11 145.45 8.08L145.45 7.53C145.45 7.42 145.40 7.32 145.28 7.32C145.22 7.32 145.18 7.35 145.14 7.38C143.84 8.08 143.81 8.06 143.81 8.18L143.81 8.19C143.81 8.25 143.85 8.29 143.89 8.33C144.52 8.81 144.52 8.78 144.52 9.11L144.52 12.46C144.52 12.70 144.51 12.88 144.16 12.94C143.72 13.01 143.61 12.99 143.61 13.27C143.61 13.47 143.75 13.52 143.84 13.52C143.88 13.52 144.40 13.44 145.07 13.44C145.75 13.44 146.33 13.54 146.37 13.54C146.50 13.54 146.55 13.43 146.55 13.29C146.55 12.98 146.38 13.01 145.80 12.91C145.50 12.87 145.49 12.67 145.49 12.52L145.49 12.47L145.49 9.16C145.49 9.10 145.49 9.03 145.50 8.97C145.56 8.72 146.13 8.06 146.94 8.06C147.27 8.06 148.04 8.19 148.34 8.90C148.51 9.32 148.53 10.16 148.53 10.42L148.53 12.59C148.53 12.82 148.48 12.89 148.30 12.92C147.74 13.02 147.57 12.99 147.57 13.24C147.57 13.38 147.60 13.52 147.77 13.52C147.80 13.52 148.30 13.44 148.92 13.44C149.62 13.44 149.97 13.52 150.09 13.52C150.18 13.52 150.30 13.48 150.30 13.24C150.30 13.15 150.29 13.02 150.11 12.99C149.62 12.92 149.44 12.95 149.44 12.56L149.44 12.53C149.44 10.60 149.45 10.35 149.45 10.11C149.45 9.87 149.45 9.63 149.42 9.39C149.28 7.66 148.06 7.38 147.43 7.38L147.41 7.38C146.20 7.39 145.54 8.22 145.49 8.22L145.47 8.22C145.46 8.22 145.43 8.20 145.43 8.16Z"></path></g><!----><!----></svg>